<mxfile host="65bd71144e">
    <diagram id="hyXTzDfZUhhmsDUPOdG6" name="Page-1">
        <mxGraphModel dx="1074" dy="530" grid="1" gridSize="10" guides="1" tooltips="1" connect="1" arrows="1" fold="1" page="1" pageScale="1" pageWidth="850" pageHeight="1100" background="#FFFFFF" math="0" shadow="0">
            <root>
                <mxCell id="0"/>
                <mxCell id="1" parent="0"/>
                <mxCell id="4" value="" style="edgeStyle=none;html=1;strokeColor=#000000;strokeWidth=2;startArrow=none;" parent="1" source="22" target="2" edge="1">
                    <mxGeometry relative="1" as="geometry"/>
                </mxCell>
                <mxCell id="diSnjzynUhi2UMkX59iC-2" value="&lt;font style=&quot;font-size: 18px&quot;&gt;N&lt;br&gt;&lt;/font&gt;" style="shape=parallelogram;html=1;strokeWidth=3;perimeter=parallelogramPerimeter;whiteSpace=wrap;rounded=1;arcSize=12;size=0.23;fillColor=#0000FF;fontColor=#000000;strokeColor=#000000;" parent="1" vertex="1">
                    <mxGeometry x="362" y="160" width="125" height="60" as="geometry"/>
                </mxCell>
                <mxCell id="diSnjzynUhi2UMkX59iC-12" value="" style="edgeStyle=orthogonalEdgeStyle;rounded=0;orthogonalLoop=1;jettySize=auto;html=1;fontSize=18;strokeColor=#000000;strokeWidth=2;" parent="1" source="diSnjzynUhi2UMkX59iC-5" target="diSnjzynUhi2UMkX59iC-2" edge="1">
                    <mxGeometry relative="1" as="geometry"/>
                </mxCell>
                <mxCell id="diSnjzynUhi2UMkX59iC-5" value="INICIO" style="strokeWidth=3;html=1;shape=mxgraph.flowchart.terminator;whiteSpace=wrap;fontSize=18;fillColor=#FF0000;fontStyle=1;fontColor=#000000;strokeColor=#000000;" parent="1" vertex="1">
                    <mxGeometry x="375" y="70" width="100" height="60" as="geometry"/>
                </mxCell>
                <mxCell id="diSnjzynUhi2UMkX59iC-6" value="FIN" style="strokeWidth=3;html=1;shape=mxgraph.flowchart.terminator;whiteSpace=wrap;fontSize=18;fillColor=#FF0000;fontStyle=1;fontColor=#000000;strokeColor=#000000;" parent="1" vertex="1">
                    <mxGeometry x="374.5" y="790" width="100" height="60" as="geometry"/>
                </mxCell>
                <mxCell id="diSnjzynUhi2UMkX59iC-11" value="" style="edgeStyle=orthogonalEdgeStyle;rounded=0;orthogonalLoop=1;jettySize=auto;html=1;fontSize=18;strokeColor=#000000;strokeWidth=2;" parent="1" source="diSnjzynUhi2UMkX59iC-7" target="diSnjzynUhi2UMkX59iC-6" edge="1">
                    <mxGeometry relative="1" as="geometry"/>
                </mxCell>
                <mxCell id="diSnjzynUhi2UMkX59iC-7" value="Z" style="strokeWidth=3;html=1;shape=mxgraph.flowchart.document2;whiteSpace=wrap;size=0.25;fontSize=18;fillColor=#FF8000;fontColor=#000000;strokeColor=#000000;" parent="1" vertex="1">
                    <mxGeometry x="374.5" y="700" width="100" height="60" as="geometry"/>
                </mxCell>
                <mxCell id="5" style="edgeStyle=none;html=1;exitX=1;exitY=0.5;exitDx=0;exitDy=0;exitPerimeter=0;strokeColor=#000000;strokeWidth=2;entryX=0.5;entryY=0;entryDx=0;entryDy=0;" parent="1" source="2" target="8" edge="1">
                    <mxGeometry relative="1" as="geometry">
                        <mxPoint x="620" y="360" as="targetPoint"/>
                        <Array as="points">
                            <mxPoint x="615" y="455"/>
                        </Array>
                    </mxGeometry>
                </mxCell>
                <mxCell id="6" style="edgeStyle=none;html=1;exitX=0;exitY=0.5;exitDx=0;exitDy=0;exitPerimeter=0;entryX=0.5;entryY=0;entryDx=0;entryDy=0;strokeColor=#000000;strokeWidth=2;" parent="1" source="2" target="16" edge="1">
                    <mxGeometry relative="1" as="geometry">
                        <mxPoint x="264.9999999999998" y="410" as="targetPoint"/>
                        <Array as="points">
                            <mxPoint x="265" y="455"/>
                        </Array>
                    </mxGeometry>
                </mxCell>
                <mxCell id="2" value="&lt;font face=&quot;helvetica&quot;&gt;&lt;span style=&quot;font-size: 18px&quot;&gt;(U % 2) == 0&lt;/span&gt;&lt;/font&gt;" style="strokeWidth=3;html=1;shape=mxgraph.flowchart.decision;whiteSpace=wrap;fillColor=#FFFF00;fontColor=#000000;strokeColor=#000000;" parent="1" vertex="1">
                    <mxGeometry x="359.5" y="390" width="130" height="130" as="geometry"/>
                </mxCell>
                <mxCell id="10" style="edgeStyle=none;html=1;exitX=0.5;exitY=1;exitDx=0;exitDy=0;entryX=0.5;entryY=0;entryDx=0;entryDy=0;entryPerimeter=0;strokeColor=#000000;strokeWidth=2;" parent="1" source="8" target="diSnjzynUhi2UMkX59iC-7" edge="1">
                    <mxGeometry relative="1" as="geometry">
                        <Array as="points">
                            <mxPoint x="615" y="660"/>
                            <mxPoint x="426" y="660"/>
                        </Array>
                    </mxGeometry>
                </mxCell>
                <mxCell id="8" value="&lt;span style=&quot;font-size: 18px&quot;&gt;Z = &quot;PAR&quot;&lt;/span&gt;" style="rounded=1;whiteSpace=wrap;html=1;absoluteArcSize=1;arcSize=14;strokeWidth=3;fillColor=#00FF00;fontColor=#000000;strokeColor=#000000;" parent="1" vertex="1">
                    <mxGeometry x="550" y="510" width="130" height="100" as="geometry"/>
                </mxCell>
                <mxCell id="11" value="&lt;b&gt;&lt;font style=&quot;font-size: 16px&quot;&gt;Falso&lt;/font&gt;&lt;/b&gt;" style="text;html=1;align=center;verticalAlign=middle;resizable=0;points=[];autosize=1;strokeColor=none;fillColor=none;fontColor=#000000;" parent="1" vertex="1">
                    <mxGeometry x="270" y="300" width="60" height="20" as="geometry"/>
                </mxCell>
                <mxCell id="12" value="&lt;b&gt;&lt;font style=&quot;font-size: 16px&quot;&gt;Verdadero&lt;/font&gt;&lt;/b&gt;" style="text;html=1;align=center;verticalAlign=middle;resizable=0;points=[];autosize=1;strokeColor=none;fillColor=none;fontSize=16;fontColor=#000000;" parent="1" vertex="1">
                    <mxGeometry x="520" y="300" width="90" height="20" as="geometry"/>
                </mxCell>
                <mxCell id="21" style="edgeStyle=none;html=1;exitX=0.5;exitY=1;exitDx=0;exitDy=0;entryX=0.5;entryY=0;entryDx=0;entryDy=0;strokeColor=#000000;strokeWidth=2;entryPerimeter=0;" parent="1" source="16" target="diSnjzynUhi2UMkX59iC-7" edge="1">
                    <mxGeometry relative="1" as="geometry">
                        <mxPoint x="264.9999999999998" y="540" as="sourcePoint"/>
                        <mxPoint x="265" y="570" as="targetPoint"/>
                        <Array as="points">
                            <mxPoint x="265" y="660"/>
                            <mxPoint x="426" y="660"/>
                        </Array>
                    </mxGeometry>
                </mxCell>
                <mxCell id="16" value="&lt;font style=&quot;font-size: 18px&quot;&gt;Z = &quot;IMPAR&quot;&lt;/font&gt;" style="rounded=1;whiteSpace=wrap;html=1;absoluteArcSize=1;arcSize=14;strokeWidth=3;fillColor=#00FF00;fontColor=#000000;strokeColor=#000000;" parent="1" vertex="1">
                    <mxGeometry x="200" y="510" width="130" height="100" as="geometry"/>
                </mxCell>
                <mxCell id="22" value="&lt;div&gt;&lt;span style=&quot;font-size: 18px&quot;&gt;U = (N % 10)&lt;/span&gt;&lt;/div&gt;" style="rounded=1;whiteSpace=wrap;html=1;absoluteArcSize=1;arcSize=14;strokeWidth=3;fillColor=#00FF00;fontColor=#000000;strokeColor=#000000;" vertex="1" parent="1">
                    <mxGeometry x="360" y="250" width="130" height="100" as="geometry"/>
                </mxCell>
                <mxCell id="23" value="" style="edgeStyle=none;html=1;strokeColor=#000000;strokeWidth=2;endArrow=none;entryX=0.5;entryY=0;entryDx=0;entryDy=0;" edge="1" parent="1" source="diSnjzynUhi2UMkX59iC-2" target="22">
                    <mxGeometry relative="1" as="geometry">
                        <mxPoint x="424.1808510638298" y="230" as="sourcePoint"/>
                        <mxPoint x="520" y="240" as="targetPoint"/>
                    </mxGeometry>
                </mxCell>
            </root>
        </mxGraphModel>
    </diagram>
</mxfile>